<svg width="20" height="21" viewBox="0 0 20 21" fill="none" xmlns="http://www.w3.org/2000/svg">
<mask id="mask0_6077_5486" style="mask-type:alpha" maskUnits="userSpaceOnUse" x="0" y="0" width="20" height="21">
<rect y="0.871094" width="19.3514" height="19.3514" fill="#D9D9D9"/>
</mask>
<g mask="url(#mask0_6077_5486)">
<path d="M9.67574 12.1601C9.44728 12.1601 9.25578 12.0828 9.10124 11.9283C8.9467 11.7737 8.86943 11.5822 8.86943 11.3538C8.86943 11.1253 8.9467 10.9338 9.10124 10.7793C9.25578 10.6247 9.44728 10.5475 9.67574 10.5475C9.90419 10.5475 10.0957 10.6247 10.2502 10.7793C10.4048 10.9338 10.482 11.1253 10.482 11.3538C10.482 11.5822 10.4048 11.7737 10.2502 11.9283C10.0957 12.0828 9.90419 12.1601 9.67574 12.1601ZM6.4505 12.1601C6.22204 12.1601 6.03054 12.0828 5.876 11.9283C5.72146 11.7737 5.64419 11.5822 5.64419 11.3538C5.64419 11.1253 5.72146 10.9338 5.876 10.7793C6.03054 10.6247 6.22204 10.5475 6.4505 10.5475C6.67895 10.5475 6.87045 10.6247 7.02499 10.7793C7.17954 10.9338 7.25681 11.1253 7.25681 11.3538C7.25681 11.5822 7.17954 11.7737 7.02499 11.9283C6.87045 12.0828 6.67895 12.1601 6.4505 12.1601ZM12.901 12.1601C12.6725 12.1601 12.481 12.0828 12.3265 11.9283C12.1719 11.7737 12.0947 11.5822 12.0947 11.3538C12.0947 11.1253 12.1719 10.9338 12.3265 10.7793C12.481 10.6247 12.6725 10.5475 12.901 10.5475C13.1294 10.5475 13.3209 10.6247 13.4755 10.7793C13.63 10.9338 13.7073 11.1253 13.7073 11.3538C13.7073 11.5822 13.63 11.7737 13.4755 11.9283C13.3209 12.0828 13.1294 12.1601 12.901 12.1601ZM9.67574 15.3853C9.44728 15.3853 9.25578 15.3081 9.10124 15.1535C8.9467 14.999 8.86943 14.8075 8.86943 14.579C8.86943 14.3506 8.9467 14.1591 9.10124 14.0045C9.25578 13.85 9.44728 13.7727 9.67574 13.7727C9.90419 13.7727 10.0957 13.85 10.2502 14.0045C10.4048 14.1591 10.482 14.3506 10.482 14.579C10.482 14.8075 10.4048 14.999 10.2502 15.1535C10.0957 15.3081 9.90419 15.3853 9.67574 15.3853ZM6.4505 15.3853C6.22204 15.3853 6.03054 15.3081 5.876 15.1535C5.72146 14.999 5.64419 14.8075 5.64419 14.579C5.64419 14.3506 5.72146 14.1591 5.876 14.0045C6.03054 13.85 6.22204 13.7727 6.4505 13.7727C6.67895 13.7727 6.87045 13.85 7.02499 14.0045C7.17954 14.1591 7.25681 14.3506 7.25681 14.579C7.25681 14.8075 7.17954 14.999 7.02499 15.1535C6.87045 15.3081 6.67895 15.3853 6.4505 15.3853ZM12.901 15.3853C12.6725 15.3853 12.481 15.3081 12.3265 15.1535C12.1719 14.999 12.0947 14.8075 12.0947 14.579C12.0947 14.3506 12.1719 14.1591 12.3265 14.0045C12.481 13.85 12.6725 13.7727 12.901 13.7727C13.1294 13.7727 13.3209 13.85 13.4755 14.0045C13.63 14.1591 13.7073 14.3506 13.7073 14.579C13.7073 14.8075 13.63 14.999 13.4755 15.1535C13.3209 15.3081 13.1294 15.3853 12.901 15.3853ZM4.03157 18.6106C3.5881 18.6106 3.20846 18.4527 2.89265 18.1369C2.57685 17.8211 2.41895 17.4414 2.41895 16.998V5.70962C2.41895 5.26614 2.57685 4.88651 2.89265 4.5707C3.20846 4.2549 3.5881 4.097 4.03157 4.097H4.83788V2.48438H6.4505V4.097H12.901V2.48438H14.5136V4.097H15.3199C15.7634 4.097 16.143 4.2549 16.4588 4.5707C16.7746 4.88651 16.9325 5.26614 16.9325 5.70962V16.998C16.9325 17.4414 16.7746 17.8211 16.4588 18.1369C16.143 18.4527 15.7634 18.6106 15.3199 18.6106H4.03157ZM4.03157 16.998H15.3199V8.93486H4.03157V16.998Z" fill="white"/>
</g>
</svg>
