<svg width="20" height="20" viewBox="0 0 20 20" fill="none" xmlns="http://www.w3.org/2000/svg">
<mask id="mask0_6077_5481" style="mask-type:alpha" maskUnits="userSpaceOnUse" x="0" y="0" width="20" height="20">
<rect width="19.3514" height="19.3514" fill="#D9D9D9"/>
</mask>
<g mask="url(#mask0_6077_5481)">
<path d="M9.67411 9.67248C10.1176 9.67248 10.4972 9.51458 10.813 9.19877C11.1288 8.88297 11.2867 8.50333 11.2867 8.05986C11.2867 7.61639 11.1288 7.23675 10.813 6.92094C10.4972 6.60514 10.1176 6.44724 9.67411 6.44724C9.23064 6.44724 8.85101 6.60514 8.5352 6.92094C8.2194 7.23675 8.06149 7.61639 8.06149 8.05986C8.06149 8.50333 8.2194 8.88297 8.5352 9.19877C8.85101 9.51458 9.23064 9.67248 9.67411 9.67248ZM9.67411 17.7356C7.51052 15.8945 5.89454 14.1845 4.82617 12.6054C3.75781 11.0264 3.22363 9.56497 3.22363 8.22112C3.22363 6.20534 3.87204 4.59944 5.16886 3.40342C6.46567 2.20739 7.96742 1.60938 9.67411 1.60938C11.3808 1.60938 12.8826 2.20739 14.1794 3.40342C15.4762 4.59944 16.1246 6.20534 16.1246 8.22112C16.1246 9.56497 15.5904 11.0264 14.5221 12.6054C13.4537 14.1845 11.8377 15.8945 9.67411 17.7356Z" fill="white"/>
</g>
</svg>
